<svg xmlns="http://www.w3.org/2000/svg" viewBox="1403.9 1124 54.1 58.4"><defs><style>.a{fill:#fff;fill-rule:evenodd;}</style></defs><path class="a" d="M564,26h-4a2,2,0,0,1,0-4h4a2,2,0,0,1,0,4Zm-7.9-13.3a1.98,1.98,0,0,1-2.8-2.8l2.8-2.8a1.98,1.98,0,0,1,2.8,2.8Zm-2.9,15.6h0A12.307,12.307,0,0,1,556,36h0a11.908,11.908,0,0,1-8,11.3,6.585,6.585,0,0,0-1.2-3.8A7.919,7.919,0,0,0,552,36a8.024,8.024,0,0,0-8-8,7.791,7.791,0,0,0-4.3,1.3A12,12,0,0,0,516,32a13.442,13.442,0,0,0,.7,4h0a12.148,12.148,0,0,0,5.4,6.4l-.1.1a7.262,7.262,0,0,0-1.9,3.4,15.971,15.971,0,0,1-7.7-9.9h0a17.525,17.525,0,0,1-.5-4,16.047,16.047,0,0,1,16-16,13.267,13.267,0,0,1,4.5.7A11.984,11.984,0,0,1,553.9,24,10.248,10.248,0,0,1,553.2,28.3ZM542,16a8.362,8.362,0,0,0-5.7,2.3,15.867,15.867,0,0,1,5.6,5.9,13.552,13.552,0,0,1,2-.2,12.492,12.492,0,0,1,5.8,1.5h0a7.57,7.57,0,0,0,.1-1.5A7.731,7.731,0,0,0,542,16Zm0-8a2.006,2.006,0,0,1-2-2V2a2,2,0,0,1,4,0V6A2.006,2.006,0,0,1,542,8Zm-14.1,4.7L525,9.9a1.98,1.98,0,0,1,2.8-2.8l2.8,2.8a1.933,1.933,0,0,1,0,2.8A1.819,1.819,0,0,1,527.9,12.7ZM527,43.2l2.1,2.1a2.97,2.97,0,1,1-4.2,0Zm7,8,2.1,2.1a2.97,2.97,0,1,1-4.2,0Zm7-8,2.1,2.1a2.97,2.97,0,1,1-4.2,0Z" transform="translate(892 1124)"/></svg>