<svg xmlns="http://www.w3.org/2000/svg" viewBox="1413 1011 44 40"><defs><style>.a{fill:#fff;}</style></defs><path class="a" d="M9,35.75c0-2.347,2.484-4.356,4.25-6.123C15.03,31.38,17.5,33.4,17.5,35.75a4.25,4.25,0,0,1-8.5,0ZM24,33.9V31.4l-2.2,1.3a1.972,1.972,0,1,1-2-3.4L22,28l-2.2-1.3a1.863,1.863,0,0,1-.7-2.7,1.9,1.9,0,0,1,2.7-.7L24,24.6V22a2,2,0,1,1,4,0v2.5l2.2-1.3a1.972,1.972,0,1,1,2,3.4L30,28l2.2,1.3a1.972,1.972,0,1,1-2,3.4L28,31.4v2.5a2,2,0,1,1-4,0ZM24,28a2,2,0,1,0,2-2A2.006,2.006,0,0,0,24,28Zm12-1.1A7.983,7.983,0,0,0,32,12a7.79,7.79,0,0,0-4.3,1.3A12,12,0,0,0,4,16a11.808,11.808,0,0,0,4,8.9v4.9A15.964,15.964,0,0,1,16,0,16.105,16.105,0,0,1,30,8.2,13.575,13.575,0,0,1,32,8a11.992,11.992,0,0,1,4,23.3Z" transform="translate(1413 1011)"/></svg>