<svg xmlns="http://www.w3.org/2000/svg" viewBox="1735 252 48 36">
  <defs>
    <style>
      .cls-1 {
        fill: #fff;
        fill-rule: evenodd;
      }
    </style>
  </defs>
  <path id="icon-sunrise" class="cls-1" d="M202.7,279.9l-2.8-2.8a1.98,1.98,0,0,0-2.8,2.8l2.8,2.8a1.98,1.98,0,0,0,2.8-2.8ZM224,302H204a2,2,0,0,0,0,4h20a2,2,0,0,0,0-4Zm-28-10h-4a2,2,0,0,0,0,4h4a2,2,0,0,0,0-4Zm18-14a2.006,2.006,0,0,0,2-2v-4a2,2,0,0,0-4,0v4A2.006,2.006,0,0,0,214,278Zm17-1a1.933,1.933,0,0,0-2.8,0l-2.8,2.8a1.98,1.98,0,0,0,2.8,2.8l2.8-2.8A2.128,2.128,0,0,0,231,277Zm5,15h-4a2,2,0,0,0,0,4h4a2,2,0,0,0,0-4Zm-22-10a12.035,12.035,0,0,0-12,12,13.443,13.443,0,0,0,.7,4h4.4a7.742,7.742,0,0,1-1.1-4,8,8,0,0,1,16,0,7.742,7.742,0,0,1-1.1,4h4.4a13.443,13.443,0,0,0,.7-4A12.035,12.035,0,0,0,214,282Zm0,16.2a.945.945,0,0,0,1-1v-3.8l2.5,2.5a.99.99,0,0,0,1.4-1.4l-4.2-4.2a.967.967,0,0,0-1.4,0l-4.2,4.2a.99.99,0,0,0,1.4,1.4l2.5-2.5v3.8A.945.945,0,0,0,214,298.2Z" transform="translate(1545 -18)"/>
</svg>
