<svg xmlns="http://www.w3.org/2000/svg" viewBox="1729 1129 48 48"><defs><style>.a{fill:#fff;fill-rule:evenodd;}</style></defs><path class="a" d="M108,290h-4a2,2,0,0,1,0-4h4a2,2,0,0,1,0,4Zm-7.9-13.3a1.98,1.98,0,0,1-2.8-2.8l2.8-2.8a1.98,1.98,0,1,1,2.8,2.8ZM86,300a12,12,0,1,1,12-12A12.035,12.035,0,0,1,86,300Zm0-20a8,8,0,1,0,8,8A8.024,8.024,0,0,0,86,280Zm0-8a2.006,2.006,0,0,1-2-2v-4a2,2,0,0,1,4,0v4A2.006,2.006,0,0,1,86,272Zm-14.1,4.7-2.8-2.8a1.98,1.98,0,1,1,2.8-2.8l2.8,2.8a1.98,1.98,0,0,1-2.8,2.8ZM70,288a2.006,2.006,0,0,1-2,2H64a2,2,0,0,1,0-4h4A2.006,2.006,0,0,1,70,288Zm1.9,11.3a1.98,1.98,0,1,1,2.8,2.8l-2.8,2.8a1.98,1.98,0,0,1-2.8-2.8ZM86,304a2.006,2.006,0,0,1,2,2v4a2,2,0,0,1-4,0v-4A2.006,2.006,0,0,1,86,304Zm14.1-4.7,2.8,2.8a1.98,1.98,0,0,1-2.8,2.8l-2.8-2.8a1.98,1.98,0,1,1,2.8-2.8Z" transform="translate(1667 865)"/></svg>