<svg xmlns="http://www.w3.org/2000/svg" viewBox="1306 1132 44.1 42.4"><defs><style>.a{fill:#fff;fill-rule:evenodd;}</style></defs><path class="a" d="M480,24a12.31,12.31,0,0,0-2,.2A16.019,16.019,0,0,0,448,32a15.824,15.824,0,0,0,8.2,13.9,6.423,6.423,0,0,1,1.9-3.4l.1-.1a11.983,11.983,0,1,1,17.6-13.1,7.984,7.984,0,1,1,7.1,14.2,6.585,6.585,0,0,1,1.2,3.8,11.908,11.908,0,0,0,8-11.3A12.187,12.187,0,0,0,480,24ZM463,43.2l-2.1,2.1a2.97,2.97,0,1,0,4.2,0Zm14,0-2.1,2.1a2.97,2.97,0,1,0,4.2,0Zm-7,8-2.1,2.1a2.97,2.97,0,1,0,4.2,0Z" transform="translate(858 1116)"/></svg>