<svg xmlns="http://www.w3.org/2000/svg" viewBox="1774 72 28 10">
  <defs>
    <style>
      .cls-1 {
        fill: #fff;
        fill-rule: evenodd;
      }
    </style>
  </defs>
  <path id="icon-visibility" class="cls-1" d="M99,480H98v2a2.946,2.946,0,0,1-3,3H91a2.946,2.946,0,0,1-3-3l-1-4H85l-1,4a2.946,2.946,0,0,1-3,3H77a2.946,2.946,0,0,1-3-3v-2H73a.945.945,0,0,1-1-1v-1a.945.945,0,0,1,1-1h1.2a2.913,2.913,0,0,1,2.8-2h5a2.845,2.845,0,0,1,2.3,1.1,8.6,8.6,0,0,1,1.6-.1,9.149,9.149,0,0,1,1.7.1,2.845,2.845,0,0,1,2.3-1.1h5a2.913,2.913,0,0,1,2.8,2H99a.945.945,0,0,1,1,1v1A1.075,1.075,0,0,1,99,480Zm-18.7-3.3a.785.785,0,0,0-1.1,0L76,479.9a.778.778,0,0,0,1.1,1.1l3.2-3.2A.776.776,0,0,0,80.3,476.7Zm14,0a.785.785,0,0,0-1.1,0L90,479.9a.778.778,0,0,0,1.1,1.1l3.2-3.2A.776.776,0,0,0,94.3,476.7Z" transform="translate(1702 -403)"/>
</svg>
