<svg xmlns="http://www.w3.org/2000/svg" viewBox="1752 184.9 44 33.4">
  <defs>
    <style>
      .cls-1 {
        fill: #fff;
        fill-rule: evenodd;
      }
    </style>
  </defs>
  <path id="icon-pressure" class="cls-1" d="M288,496h-2.2l2.1-2.1a6.251,6.251,0,0,0,1.3-2A7.995,7.995,0,0,0,288,476a8.558,8.558,0,0,0-4.2,1.2,7.579,7.579,0,0,0-.6-1.6,12,12,0,1,0-16.8,14.9,5.57,5.57,0,0,0,1.7,3.3l2,2A16.008,16.008,0,1,1,286,472.1a13.552,13.552,0,0,1,2-.2,12.05,12.05,0,0,1,0,24.1Zm-14.3-7.8,2.2,2.2V478.6a2,2,0,1,1,4,0v11.8l2.2-2.2a1.98,1.98,0,0,1,2.8,2.8l-5.7,5.7a1.933,1.933,0,0,1-2.8,0l-5.7-5.7a1.933,1.933,0,0,1,0-2.8A2.4,2.4,0,0,1,273.7,488.2Z" transform="translate(1496 -279)"/>
</svg>
