<svg xmlns="http://www.w3.org/2000/svg" viewBox="1731 1011 44 44"><defs><style>.a{fill:#fff;fill-rule:evenodd;}</style></defs><path class="a" d="M292,47.3V42.9A7.982,7.982,0,0,0,288,28a7.791,7.791,0,0,0-4.3,1.3A12,12,0,0,0,260,32a11.807,11.807,0,0,0,4,8.9v4.9A15.964,15.964,0,0,1,272,16a16.1,16.1,0,0,1,14,8.2,13.552,13.552,0,0,1,2-.2,11.992,11.992,0,0,1,4,23.3ZM270,36a2.006,2.006,0,0,1,2,2v4a2,2,0,0,1-4,0V38A2.006,2.006,0,0,1,270,36Zm0,12a2.006,2.006,0,0,1,2,2v4a2,2,0,0,1-4,0V50A2.006,2.006,0,0,1,270,48Zm8-8a2.006,2.006,0,0,1,2,2v4a2,2,0,0,1-4,0V42A2.006,2.006,0,0,1,278,40Zm0,12a2.006,2.006,0,0,1,2,2v4a2,2,0,0,1-4,0V54A2.006,2.006,0,0,1,278,52Zm8-16a2.006,2.006,0,0,1,2,2v4a2,2,0,0,1-4,0V38A2.006,2.006,0,0,1,286,36Zm0,12a2.006,2.006,0,0,1,2,2v4a2,2,0,0,1-4,0V50A2.006,2.006,0,0,1,286,48Z" transform="translate(1475 995)"/></svg>