<svg xmlns="http://www.w3.org/2000/svg" viewBox="1518 1010 47 46"><defs><style>.a{fill:#fff;fill-rule:evenodd;}</style></defs><path class="a" d="M621,118a2,2,0,1,1,2-2A2.006,2.006,0,0,1,621,118Zm-9-6.7v-4.4A7.982,7.982,0,0,0,608,92a7.791,7.791,0,0,0-4.3,1.3A12,12,0,0,0,580,96a12.167,12.167,0,0,0,4,8.9v4.9A15.964,15.964,0,0,1,592,80a16.1,16.1,0,0,1,14,8.2,13.553,13.553,0,0,1,2-.2,11.992,11.992,0,0,1,4,23.3ZM579,119a2,2,0,1,1-2,2A2.006,2.006,0,0,1,579,119Zm10-17c0-1.1-.1-2,1-2s1,.9,1,2v24h-2a4.012,4.012,0,0,0-4-4v-2a5.946,5.946,0,0,1,4,1.6Zm9,14c-1.1,0-1-.9-1-2v-8c0-1.1-.1-2,1-2s1,.9,1,2v8C599,115.1,599.1,116,598,116Zm0,4a2,2,0,1,1-2,2A2.006,2.006,0,0,1,598,120Zm8-20c1.1,0,1,.9,1,2v18a9.989,9.989,0,0,1,8-4v2a8.024,8.024,0,0,0-8,8h-2v-.8a4.745,4.745,0,0,1,0-1.2V102C605,100.9,604.9,100,606,100Z" transform="translate(942 930)"/></svg>