<svg xmlns="http://www.w3.org/2000/svg" viewBox="1703 8 44 28">
  <defs>
    <style>
      .cls-1 {
        fill: #fff;
        fill-rule: evenodd;
      }
    </style>
  </defs>
  <path id="icon-wind-speed" class="cls-1" d="M294,226h-3a2,2,0,0,1,0-4h3a2,2,0,0,0,0-4,2,2,0,0,1,0-4h.4a6.007,6.007,0,0,1-.4,12Zm-10-4H262a2,2,0,0,0,0,4h22a6.018,6.018,0,0,1,6,6,6.085,6.085,0,0,1-5.6,6H284a2,2,0,0,1,0-4,2,2,0,0,0,0-4H262a6.018,6.018,0,0,1-6-6,6.085,6.085,0,0,1,5.6-6H284a2,2,0,0,0,0-4,2,2,0,0,1,0-4h.4a6.007,6.007,0,0,1-.4,12Z" transform="translate(1447 -202)"/>
</svg>
