<svg xmlns="http://www.w3.org/2000/svg" viewBox="1625 1129 54 48"><defs><style>.a{fill:#fff;fill-rule:evenodd;}</style></defs><path class="a" d="M180,26h-4a2,2,0,0,1,0-4h4a2,2,0,0,1,0,4Zm-7.9-13.3a1.98,1.98,0,0,1-2.8-2.8l2.8-2.8a1.98,1.98,0,1,1,2.8,2.8Zm-2.9,15.6h0A12.308,12.308,0,0,1,172,36a12.035,12.035,0,0,1-12,12H144a16,16,0,0,1,0-32,13.267,13.267,0,0,1,4.5.7,11.987,11.987,0,0,1,20.7,11.6ZM132,32a12.035,12.035,0,0,0,12,12h16a8,8,0,0,0,0-16,7.791,7.791,0,0,0-4.3,1.3A12,12,0,0,0,132,32Zm26-16a8.362,8.362,0,0,0-5.7,2.3,15.867,15.867,0,0,1,5.6,5.9,13.552,13.552,0,0,1,2-.2,12.492,12.492,0,0,1,5.8,1.5h0a7.719,7.719,0,0,0,.2-1.5A7.875,7.875,0,0,0,158,16Zm0-8a2.006,2.006,0,0,1-2-2V2a2,2,0,0,1,4,0V6A2.006,2.006,0,0,1,158,8Zm-14.1,4.7L141,9.9a1.98,1.98,0,0,1,2.8-2.8l2.8,2.8a1.933,1.933,0,0,1,0,2.8A1.819,1.819,0,0,1,143.9,12.7Z" transform="translate(1497 1129)"/></svg>