<svg xmlns="http://www.w3.org/2000/svg" viewBox="1620.1 1000 53.9 60"><defs><style>.a{fill:#fff;fill-rule:evenodd;}</style></defs><path class="a" d="M628,218h-4a2,2,0,0,1,0-4h4a2,2,0,0,1,0,4Zm-7.9-13.3a1.98,1.98,0,0,1-2.8-2.8l2.8-2.8a1.98,1.98,0,0,1,2.8,2.8Zm-2.9,15.6h0a11.919,11.919,0,0,1,2.6,5.7h0a13.556,13.556,0,0,1,.2,2,12.035,12.035,0,0,1-12,12h-1.1l3.6-4.4A8.085,8.085,0,0,0,616,228a6.447,6.447,0,0,0-.3-2h0a8.039,8.039,0,0,0-7.7-6,7.791,7.791,0,0,0-4.3,1.3A12,12,0,0,0,580,224a13.547,13.547,0,0,0,.2,2h0a12.193,12.193,0,0,0,8.4,9.5l-1.3,3.8A15.987,15.987,0,0,1,576.2,226h0a13.405,13.405,0,0,1-.1-2,16.047,16.047,0,0,1,16-16,13.267,13.267,0,0,1,4.5.7,11.984,11.984,0,0,1,21.5,7.3A14.954,14.954,0,0,1,617.2,220.3ZM606,208a8.018,8.018,0,0,0-5.7,2.4,15.867,15.867,0,0,1,5.6,5.9,13.551,13.551,0,0,1,2-.2,12.492,12.492,0,0,1,5.8,1.5h0a7.57,7.57,0,0,0,.1-1.5A7.757,7.757,0,0,0,606,208Zm0-8a2.006,2.006,0,0,1-2-2v-4a2,2,0,0,1,4,0v4A2.006,2.006,0,0,1,606,200Zm-14.1,4.7-2.8-2.8a1.98,1.98,0,0,1,2.8-2.8l2.8,2.8a1.98,1.98,0,0,1-2.8,2.8ZM596,226h10l-6,10h7l-13,16,3.6-12H591Z" transform="translate(1044 808)"/></svg>