<svg xmlns="http://www.w3.org/2000/svg" viewBox="1307 1011 44 37.9"><defs><style>.a{fill:#fff;fill-rule:evenodd;opacity:0.7;}</style></defs><path class="a" d="M354,175.8v-4.1a7.974,7.974,0,0,0-2-15.7,7.791,7.791,0,0,0-4.3,1.3A12,12,0,1,0,330,170.4v4.4a15.981,15.981,0,0,1,6-30.8,16.1,16.1,0,0,1,14,8.2,13.551,13.551,0,0,1,2-.2,11.983,11.983,0,0,1,2,23.8ZM335.1,170a1.9,1.9,0,0,1,2.7-.7l2.2,1.3V168a2,2,0,0,1,4,0v2.5l2.2-1.3a1.972,1.972,0,1,1,2,3.4L346,174l2.2,1.3a1.972,1.972,0,1,1-2,3.4l-2.2-1.3v2.5a2,2,0,0,1-4,0v-2.5l-2.2,1.3a1.972,1.972,0,1,1-2-3.4L338,174l-2.2-1.3A1.862,1.862,0,0,1,335.1,170Zm6.9,6a2,2,0,1,0-2-2A2.006,2.006,0,0,0,342,176Z" transform="translate(987 867)"/></svg>