<svg xmlns="http://www.w3.org/2000/svg" viewBox="1671 252 48 36">
  <defs>
    <style>
      .cls-1 {
        fill: #fff;
        fill-rule: evenodd;
      }
    </style>
  </defs>
  <path id="icon-sunset" class="cls-1" d="M172,296h-4a2,2,0,0,1,0-4h4a2,2,0,0,1,0,4Zm-7.9-13.3a1.98,1.98,0,0,1-2.8-2.8l2.8-2.8a1.98,1.98,0,1,1,2.8,2.8ZM161.3,298h-4.4a7.742,7.742,0,0,0,1.1-4,8,8,0,0,0-16,0,7.742,7.742,0,0,0,1.1,4h-4.4a13.443,13.443,0,0,1-.7-4,12,12,0,0,1,24,0A13.444,13.444,0,0,1,161.3,298ZM150,278a2.006,2.006,0,0,1-2-2v-4a2,2,0,0,1,4,0v4A2.006,2.006,0,0,1,150,278Zm-14.1,4.7-2.8-2.8a1.98,1.98,0,1,1,2.8-2.8l2.8,2.8a1.98,1.98,0,0,1-2.8,2.8ZM134,294a2.006,2.006,0,0,1-2,2h-4a2,2,0,0,1,0-4h4A2.006,2.006,0,0,1,134,294Zm16-4a.945.945,0,0,1,1,1v3.8l2.5-2.5a.99.99,0,1,1,1.4,1.4l-4.2,4.2a.967.967,0,0,1-1.4,0l-4.2-4.2a.99.99,0,1,1,1.4-1.4l2.5,2.5V291A.945.945,0,0,1,150,290Zm-10,12h20a2,2,0,0,1,0,4H140a2,2,0,0,1,0-4Z" transform="translate(1545 -18)"/>
</svg>
